<svg xmlns="http://www.w3.org/2000/svg" viewBox="0 0 512 512">
  <path fill="#7daf4b" d="M40.47,170.58c-10.73,5.61-21.46,11.7-31.7,18.03C29.33,111.61,84.57,48.55,158.23,18.03c10.08,4.71,19.83,9.83,29.26,15.35,35.07,19.34,67.79,42.64,97.52,69.45-85.59,3.82-169.2,26.98-244.54,67.75h0ZM289.4,484.95c-72.26-45.1-133.49-105.8-179.2-177.66-8.17,39.1-12.01,78.98-11.46,118.92.24,10.97,1.71,21.93,1.71,32.9,62.84,48.26,144.53,64.65,221.14,44.35-10.97-5.61-21.7-11.94-32.18-18.28v-.24ZM401.8,204.7c8.17-39.1,12.01-78.98,11.46-118.92-.24-10.97-1.71-21.93-1.71-32.9C348.71,4.62,267.02-11.77,190.42,8.53c10.97,5.61,21.7,11.94,32.18,18.28,72.29,45.17,133.52,105.96,179.2,177.9ZM138.73,156.45c-37.99,12.05-74.47,28.4-108.74,48.74-9.43,5.69-18.69,11.53-27.79,17.55C.72,233.72-.01,244.79,0,255.88c.03,67.73,26.95,132.67,74.85,180.58-1.71-11.94-1.71-24.13,0-36.31,2.84-84.98,24.67-168.24,63.88-243.7ZM437.39,76.27v36.31c-2.84,84.94-24.65,168.17-63.83,243.6,37.92-12.35,74.31-29,108.44-49.61,9.43-5.52,18.69-11.37,27.79-17.55,1.47-10.99,2.21-22.06,2.19-33.14-.23-67.35-27.04-131.9-74.61-179.61ZM227.23,407.46c29.7,26.86,62.43,50.17,97.52,69.45,9.43,5.52,19.18,10.64,29.26,15.35,73.66-30.52,128.9-93.58,149.46-170.59-10.24,6.34-20.97,12.43-31.7,18.03-75.34,40.76-158.95,63.93-244.54,67.75ZM373.52,356.28s.03-.07.05-.1c-.1.03-.2.07-.29.1h.24ZM256,172.41s-5.01,68.29-72.72,83.59c67.71,15.3,72.72,83.59,72.72,83.59,0,0,5.01-68.29,72.72-83.59-67.71-15.3-72.72-83.59-72.72-83.59ZM311.61,171.16s-1.44,18.56-20.84,22.73c19.4,4.17,20.84,22.73,20.84,22.73,0,0,1.44-18.56,20.84-22.73-19.4-4.17-20.84-22.73-20.84-22.73Z"/>
</svg>
